<?xml version="1.0" encoding="UTF-8" standalone="no"?>
<!DOCTYPE svg PUBLIC "-//W3C//DTD SVG 1.1//EN"
 "http://www.w3.org/Graphics/SVG/1.1/DTD/svg11.dtd">
<!-- Generated by graphviz version 5.0.0 (20220707.1540)
 -->
<!-- Title: dependencies Pages: 1 -->
<svg width="348pt" height="174pt"
 viewBox="0.00 0.00 348.00 173.80" xmlns="http://www.w3.org/2000/svg" xmlns:xlink="http://www.w3.org/1999/xlink">
<g id="graph0" class="graph" transform="scale(1 1) rotate(0) translate(4 169.8)">
<title>dependencies</title>
<polygon fill="white" stroke="transparent" points="-4,4 -4,-169.8 344,-169.8 344,4 -4,4"/>
<text text-anchor="middle" x="170" y="-8.2" font-family="sans-serif" font-size="14.00">dependencies</text>
<g id="clust1" class="cluster">
<title>cluster_NoticiasPageModule</title>
<polygon fill="none" stroke="black" stroke-dasharray="1,5" points="8,-32.8 8,-157.8 332,-157.8 332,-32.8 8,-32.8"/>
</g>
<g id="clust2" class="cluster">
<title>cluster_NoticiasPageModule_declarations</title>
<polygon fill="none" stroke="black" points="218,-40.8 218,-92.8 324,-92.8 324,-40.8 218,-40.8"/>
</g>
<g id="clust4" class="cluster">
<title>cluster_NoticiasPageModule_imports</title>
<polygon fill="none" stroke="black" points="16,-40.8 16,-92.8 210,-92.8 210,-40.8 16,-40.8"/>
</g>
<!-- NoticiasPage -->
<g id="node1" class="node">
<title>NoticiasPage</title>
<polygon fill="#ffffb3" stroke="black" points="315.87,-84.8 226.13,-84.8 226.13,-48.8 315.87,-48.8 315.87,-84.8"/>
<text text-anchor="middle" x="271" y="-62.6" font-family="Times,serif" font-size="14.00">NoticiasPage</text>
</g>
<!-- NoticiasPageModule -->
<g id="node2" class="node">
<title>NoticiasPageModule</title>
<polygon fill="#8dd3c7" stroke="black" points="251.92,-149.8 248.92,-153.8 227.92,-153.8 224.92,-149.8 118.08,-149.8 118.08,-113.8 251.92,-113.8 251.92,-149.8"/>
<text text-anchor="middle" x="185" y="-127.6" font-family="Times,serif" font-size="14.00">NoticiasPageModule</text>
</g>
<!-- NoticiasPage&#45;&gt;NoticiasPageModule -->
<g id="edge1" class="edge">
<title>NoticiasPage&#45;&gt;NoticiasPageModule</title>
<path fill="none" stroke="black" d="M238.89,-84.91C238.89,-84.91 238.89,-103.79 238.89,-103.79"/>
<polygon fill="black" stroke="black" points="235.39,-103.79 238.89,-113.79 242.39,-103.79 235.39,-103.79"/>
</g>
<!-- NoticiasPageRoutingModule -->
<g id="node3" class="node">
<title>NoticiasPageRoutingModule</title>
<polygon fill="#8dd3c7" stroke="black" points="202.04,-84.8 199.04,-88.8 178.04,-88.8 175.04,-84.8 23.96,-84.8 23.96,-48.8 202.04,-48.8 202.04,-84.8"/>
<text text-anchor="middle" x="113" y="-62.6" font-family="Times,serif" font-size="14.00">NoticiasPageRoutingModule</text>
</g>
<!-- NoticiasPageRoutingModule&#45;&gt;NoticiasPageModule -->
<g id="edge2" class="edge">
<title>NoticiasPageRoutingModule&#45;&gt;NoticiasPageModule</title>
<path fill="none" stroke="black" d="M160.28,-84.91C160.28,-84.91 160.28,-103.79 160.28,-103.79"/>
<polygon fill="black" stroke="black" points="156.78,-103.79 160.28,-113.79 163.78,-103.79 156.78,-103.79"/>
</g>
</g>
</svg>
