<?xml version="1.0" encoding="UTF-8" standalone="no"?>
<!DOCTYPE svg PUBLIC "-//W3C//DTD SVG 1.1//EN"
 "http://www.w3.org/Graphics/SVG/1.1/DTD/svg11.dtd">
<!-- Generated by graphviz version 5.0.0 (20220707.1540)
 -->
<!-- Title: dependencies Pages: 1 -->
<svg width="372pt" height="174pt"
 viewBox="0.00 0.00 372.00 173.80" xmlns="http://www.w3.org/2000/svg" xmlns:xlink="http://www.w3.org/1999/xlink">
<g id="graph0" class="graph" transform="scale(1 1) rotate(0) translate(4 169.8)">
<title>dependencies</title>
<polygon fill="white" stroke="transparent" points="-4,4 -4,-169.8 368,-169.8 368,4 -4,4"/>
<text text-anchor="middle" x="182" y="-8.2" font-family="sans-serif" font-size="14.00">dependencies</text>
<g id="clust1" class="cluster">
<title>cluster_NewsPagePageModule</title>
<polygon fill="none" stroke="black" stroke-dasharray="1,5" points="8,-32.8 8,-157.8 356,-157.8 356,-32.8 8,-32.8"/>
</g>
<g id="clust4" class="cluster">
<title>cluster_NewsPagePageModule_imports</title>
<polygon fill="none" stroke="black" points="142,-40.8 142,-92.8 348,-92.8 348,-40.8 142,-40.8"/>
</g>
<g id="clust2" class="cluster">
<title>cluster_NewsPagePageModule_declarations</title>
<polygon fill="none" stroke="black" points="16,-40.8 16,-92.8 134,-92.8 134,-40.8 16,-40.8"/>
</g>
<!-- NewsPagePage -->
<g id="node1" class="node">
<title>NewsPagePage</title>
<polygon fill="#ffffb3" stroke="black" points="126.31,-84.8 23.69,-84.8 23.69,-48.8 126.31,-48.8 126.31,-84.8"/>
<text text-anchor="middle" x="75" y="-62.6" font-family="Times,serif" font-size="14.00">NewsPagePage</text>
</g>
<!-- NewsPagePageModule -->
<g id="node2" class="node">
<title>NewsPagePageModule</title>
<polygon fill="#8dd3c7" stroke="black" points="239.86,-149.8 236.86,-153.8 215.86,-153.8 212.86,-149.8 94.14,-149.8 94.14,-113.8 239.86,-113.8 239.86,-149.8"/>
<text text-anchor="middle" x="167" y="-127.6" font-family="Times,serif" font-size="14.00">NewsPagePageModule</text>
</g>
<!-- NewsPagePage&#45;&gt;NewsPagePageModule -->
<g id="edge1" class="edge">
<title>NewsPagePage&#45;&gt;NewsPagePageModule</title>
<path fill="none" stroke="black" d="M110.11,-84.91C110.11,-84.91 110.11,-103.79 110.11,-103.79"/>
<polygon fill="black" stroke="black" points="106.61,-103.79 110.11,-113.79 113.61,-103.79 106.61,-103.79"/>
</g>
<!-- NewsPagePageRoutingModule -->
<g id="node3" class="node">
<title>NewsPagePageRoutingModule</title>
<polygon fill="#8dd3c7" stroke="black" points="340.48,-84.8 337.48,-88.8 316.48,-88.8 313.48,-84.8 149.52,-84.8 149.52,-48.8 340.48,-48.8 340.48,-84.8"/>
<text text-anchor="middle" x="245" y="-62.6" font-family="Times,serif" font-size="14.00">NewsPagePageRoutingModule</text>
</g>
<!-- NewsPagePageRoutingModule&#45;&gt;NewsPagePageModule -->
<g id="edge2" class="edge">
<title>NewsPagePageRoutingModule&#45;&gt;NewsPagePageModule</title>
<path fill="none" stroke="black" d="M194.72,-84.91C194.72,-84.91 194.72,-103.79 194.72,-103.79"/>
<polygon fill="black" stroke="black" points="191.22,-103.79 194.72,-113.79 198.22,-103.79 191.22,-103.79"/>
</g>
</g>
</svg>
