<?xml version="1.0" encoding="UTF-8" standalone="no"?>
<!DOCTYPE svg PUBLIC "-//W3C//DTD SVG 1.1//EN"
 "http://www.w3.org/Graphics/SVG/1.1/DTD/svg11.dtd">
<!-- Generated by graphviz version 5.0.0 (20220707.1540)
 -->
<!-- Title: dependencies Pages: 1 -->
<svg width="350pt" height="174pt"
 viewBox="0.00 0.00 350.00 173.80" xmlns="http://www.w3.org/2000/svg" xmlns:xlink="http://www.w3.org/1999/xlink">
<g id="graph0" class="graph" transform="scale(1 1) rotate(0) translate(4 169.8)">
<title>dependencies</title>
<polygon fill="white" stroke="transparent" points="-4,4 -4,-169.8 346,-169.8 346,4 -4,4"/>
<text text-anchor="middle" x="171" y="-8.2" font-family="sans-serif" font-size="14.00">dependencies</text>
<g id="clust1" class="cluster">
<title>cluster_RankingPageModule</title>
<polygon fill="none" stroke="black" stroke-dasharray="1,5" points="8,-32.8 8,-157.8 334,-157.8 334,-32.8 8,-32.8"/>
</g>
<g id="clust2" class="cluster">
<title>cluster_RankingPageModule_declarations</title>
<polygon fill="none" stroke="black" points="220,-40.8 220,-92.8 326,-92.8 326,-40.8 220,-40.8"/>
</g>
<g id="clust4" class="cluster">
<title>cluster_RankingPageModule_imports</title>
<polygon fill="none" stroke="black" points="16,-40.8 16,-92.8 212,-92.8 212,-40.8 16,-40.8"/>
</g>
<!-- RankingPage -->
<g id="node1" class="node">
<title>RankingPage</title>
<polygon fill="#ffffb3" stroke="black" points="318.16,-84.8 227.84,-84.8 227.84,-48.8 318.16,-48.8 318.16,-84.8"/>
<text text-anchor="middle" x="273" y="-62.6" font-family="Times,serif" font-size="14.00">RankingPage</text>
</g>
<!-- RankingPageModule -->
<g id="node2" class="node">
<title>RankingPageModule</title>
<polygon fill="#8dd3c7" stroke="black" points="253.21,-149.8 250.21,-153.8 229.21,-153.8 226.21,-149.8 118.79,-149.8 118.79,-113.8 253.21,-113.8 253.21,-149.8"/>
<text text-anchor="middle" x="186" y="-127.6" font-family="Times,serif" font-size="14.00">RankingPageModule</text>
</g>
<!-- RankingPage&#45;&gt;RankingPageModule -->
<g id="edge1" class="edge">
<title>RankingPage&#45;&gt;RankingPageModule</title>
<path fill="none" stroke="black" d="M240.39,-84.91C240.39,-84.91 240.39,-103.79 240.39,-103.79"/>
<polygon fill="black" stroke="black" points="236.89,-103.79 240.39,-113.79 243.89,-103.79 236.89,-103.79"/>
</g>
<!-- RankingPageRoutingModule -->
<g id="node3" class="node">
<title>RankingPageRoutingModule</title>
<polygon fill="#8dd3c7" stroke="black" points="203.82,-84.8 200.82,-88.8 179.82,-88.8 176.82,-84.8 24.18,-84.8 24.18,-48.8 203.82,-48.8 203.82,-84.8"/>
<text text-anchor="middle" x="114" y="-62.6" font-family="Times,serif" font-size="14.00">RankingPageRoutingModule</text>
</g>
<!-- RankingPageRoutingModule&#45;&gt;RankingPageModule -->
<g id="edge2" class="edge">
<title>RankingPageRoutingModule&#45;&gt;RankingPageModule</title>
<path fill="none" stroke="black" d="M161.28,-84.91C161.28,-84.91 161.28,-103.79 161.28,-103.79"/>
<polygon fill="black" stroke="black" points="157.78,-103.79 161.28,-113.79 164.78,-103.79 157.78,-103.79"/>
</g>
</g>
</svg>
