<?xml version="1.0" encoding="UTF-8" standalone="no"?>
<!DOCTYPE svg PUBLIC "-//W3C//DTD SVG 1.1//EN"
 "http://www.w3.org/Graphics/SVG/1.1/DTD/svg11.dtd">
<!-- Generated by graphviz version 5.0.0 (20220707.1540)
 -->
<!-- Title: dependencies Pages: 1 -->
<svg width="316pt" height="174pt"
 viewBox="0.00 0.00 316.00 173.80" xmlns="http://www.w3.org/2000/svg" xmlns:xlink="http://www.w3.org/1999/xlink">
<g id="graph0" class="graph" transform="scale(1 1) rotate(0) translate(4 169.8)">
<title>dependencies</title>
<polygon fill="white" stroke="transparent" points="-4,4 -4,-169.8 312,-169.8 312,4 -4,4"/>
<text text-anchor="middle" x="154" y="-8.2" font-family="sans-serif" font-size="14.00">dependencies</text>
<g id="clust1" class="cluster">
<title>cluster_PerfilPageModule</title>
<polygon fill="none" stroke="black" stroke-dasharray="1,5" points="8,-32.8 8,-157.8 300,-157.8 300,-32.8 8,-32.8"/>
</g>
<g id="clust4" class="cluster">
<title>cluster_PerfilPageModule_imports</title>
<polygon fill="none" stroke="black" points="114,-40.8 114,-92.8 292,-92.8 292,-40.8 114,-40.8"/>
</g>
<g id="clust2" class="cluster">
<title>cluster_PerfilPageModule_declarations</title>
<polygon fill="none" stroke="black" points="16,-40.8 16,-92.8 106,-92.8 106,-40.8 16,-40.8"/>
</g>
<!-- PerfilPage -->
<g id="node1" class="node">
<title>PerfilPage</title>
<polygon fill="#ffffb3" stroke="black" points="98.32,-84.8 23.68,-84.8 23.68,-48.8 98.32,-48.8 98.32,-84.8"/>
<text text-anchor="middle" x="61" y="-62.6" font-family="Times,serif" font-size="14.00">PerfilPage</text>
</g>
<!-- PerfilPageModule -->
<g id="node2" class="node">
<title>PerfilPageModule</title>
<polygon fill="#8dd3c7" stroke="black" points="197.87,-149.8 194.87,-153.8 173.87,-153.8 170.87,-149.8 80.13,-149.8 80.13,-113.8 197.87,-113.8 197.87,-149.8"/>
<text text-anchor="middle" x="139" y="-127.6" font-family="Times,serif" font-size="14.00">PerfilPageModule</text>
</g>
<!-- PerfilPage&#45;&gt;PerfilPageModule -->
<g id="edge1" class="edge">
<title>PerfilPage&#45;&gt;PerfilPageModule</title>
<path fill="none" stroke="black" d="M89.11,-84.91C89.11,-84.91 89.11,-103.79 89.11,-103.79"/>
<polygon fill="black" stroke="black" points="85.61,-103.79 89.11,-113.79 92.61,-103.79 85.61,-103.79"/>
</g>
<!-- PerfilPageRoutingModule -->
<g id="node3" class="node">
<title>PerfilPageRoutingModule</title>
<polygon fill="#8dd3c7" stroke="black" points="284.49,-84.8 281.49,-88.8 260.49,-88.8 257.49,-84.8 121.51,-84.8 121.51,-48.8 284.49,-48.8 284.49,-84.8"/>
<text text-anchor="middle" x="203" y="-62.6" font-family="Times,serif" font-size="14.00">PerfilPageRoutingModule</text>
</g>
<!-- PerfilPageRoutingModule&#45;&gt;PerfilPageModule -->
<g id="edge2" class="edge">
<title>PerfilPageRoutingModule&#45;&gt;PerfilPageModule</title>
<path fill="none" stroke="black" d="M159.72,-84.91C159.72,-84.91 159.72,-103.79 159.72,-103.79"/>
<polygon fill="black" stroke="black" points="156.22,-103.79 159.72,-113.79 163.22,-103.79 156.22,-103.79"/>
</g>
</g>
</svg>
