<?xml version="1.0" encoding="UTF-8" standalone="no"?>
<!DOCTYPE svg PUBLIC "-//W3C//DTD SVG 1.1//EN"
 "http://www.w3.org/Graphics/SVG/1.1/DTD/svg11.dtd">
<!-- Generated by graphviz version 5.0.0 (20220707.1540)
 -->
<!-- Title: dependencies Pages: 1 -->
<svg width="1586pt" height="247pt"
 viewBox="0.00 0.00 1586.00 246.80" xmlns="http://www.w3.org/2000/svg" xmlns:xlink="http://www.w3.org/1999/xlink">
<g id="graph0" class="graph" transform="scale(1 1) rotate(0) translate(4 242.8)">
<title>dependencies</title>
<polygon fill="white" stroke="transparent" points="-4,4 -4,-242.8 1582,-242.8 1582,4 -4,4"/>
<text text-anchor="middle" x="789" y="-8.2" font-family="sans-serif" font-size="14.00">dependencies</text>
<g id="clust1" class="cluster">
<title>cluster_ComponentsModule</title>
<polygon fill="none" stroke="black" stroke-dasharray="1,5" points="8,-32.8 8,-230.8 1570,-230.8 1570,-32.8 8,-32.8"/>
</g>
<g id="clust15" class="cluster">
<title>cluster_ComponentsModule_exports</title>
<polygon fill="none" stroke="black" points="68,-170.8 68,-222.8 1511,-222.8 1511,-170.8 68,-170.8"/>
</g>
<g id="clust2" class="cluster">
<title>cluster_ComponentsModule_declarations</title>
<polygon fill="none" stroke="black" points="16,-40.8 16,-92.8 1562,-92.8 1562,-40.8 16,-40.8"/>
</g>
<!-- FabLoginComponent -->
<g id="node1" class="node">
<title>FabLoginComponent</title>
<polygon fill="#ffffb3" stroke="black" points="1553.77,-84.8 1418.23,-84.8 1418.23,-48.8 1553.77,-48.8 1553.77,-84.8"/>
<text text-anchor="middle" x="1486" y="-62.6" font-family="Times,serif" font-size="14.00">FabLoginComponent</text>
</g>
<!-- ComponentsModule -->
<g id="node12" class="node">
<title>ComponentsModule</title>
<polygon fill="#8dd3c7" stroke="black" points="845.33,-149.8 842.33,-153.8 821.33,-153.8 818.33,-149.8 714.67,-149.8 714.67,-113.8 845.33,-113.8 845.33,-149.8"/>
<text text-anchor="middle" x="780" y="-127.6" font-family="Times,serif" font-size="14.00">ComponentsModule</text>
</g>
<!-- FabLoginComponent&#45;&gt;ComponentsModule -->
<g id="edge1" class="edge">
<title>FabLoginComponent&#45;&gt;ComponentsModule</title>
<path fill="none" stroke="black" d="M1460.38,-84.91C1460.38,-104.14 1460.38,-131.8 1460.38,-131.8 1460.38,-131.8 855.24,-131.8 855.24,-131.8"/>
<polygon fill="black" stroke="black" points="855.24,-128.3 845.24,-131.8 855.24,-135.3 855.24,-128.3"/>
</g>
<!-- HeaderComponent -->
<g id="node2" class="node">
<title>HeaderComponent</title>
<polygon fill="#ffffb3" stroke="black" points="1399.75,-84.8 1278.25,-84.8 1278.25,-48.8 1399.75,-48.8 1399.75,-84.8"/>
<text text-anchor="middle" x="1339" y="-62.6" font-family="Times,serif" font-size="14.00">HeaderComponent</text>
</g>
<!-- HeaderComponent&#45;&gt;ComponentsModule -->
<g id="edge2" class="edge">
<title>HeaderComponent&#45;&gt;ComponentsModule</title>
<path fill="none" stroke="black" d="M1311.88,-85.07C1311.88,-103.36 1311.88,-128.8 1311.88,-128.8 1311.88,-128.8 855.22,-128.8 855.22,-128.8"/>
<polygon fill="black" stroke="black" points="855.22,-125.3 845.22,-128.8 855.22,-132.3 855.22,-125.3"/>
</g>
<!-- InfoRetoComponent -->
<g id="node3" class="node">
<title>InfoRetoComponent</title>
<polygon fill="#ffffb3" stroke="black" points="1260.6,-84.8 1129.4,-84.8 1129.4,-48.8 1260.6,-48.8 1260.6,-84.8"/>
<text text-anchor="middle" x="1195" y="-62.6" font-family="Times,serif" font-size="14.00">InfoRetoComponent</text>
</g>
<!-- InfoRetoComponent&#45;&gt;ComponentsModule -->
<g id="edge3" class="edge">
<title>InfoRetoComponent&#45;&gt;ComponentsModule</title>
<path fill="none" stroke="black" d="M1165.88,-84.83C1165.88,-101.86 1165.88,-124.8 1165.88,-124.8 1165.88,-124.8 855.46,-124.8 855.46,-124.8"/>
<polygon fill="black" stroke="black" points="855.46,-121.3 845.46,-124.8 855.46,-128.3 855.46,-121.3"/>
</g>
<!-- LoginComponent -->
<g id="node4" class="node">
<title>LoginComponent</title>
<polygon fill="#ffffb3" stroke="black" points="1111.27,-84.8 996.73,-84.8 996.73,-48.8 1111.27,-48.8 1111.27,-84.8"/>
<text text-anchor="middle" x="1054" y="-62.6" font-family="Times,serif" font-size="14.00">LoginComponent</text>
</g>
<!-- LoginComponent&#45;&gt;ComponentsModule -->
<g id="edge4" class="edge">
<title>LoginComponent&#45;&gt;ComponentsModule</title>
<path fill="none" stroke="black" d="M1023.38,-84.81C1023.38,-100.85 1023.38,-121.8 1023.38,-121.8 1023.38,-121.8 855.22,-121.8 855.22,-121.8"/>
<polygon fill="black" stroke="black" points="855.22,-118.3 845.22,-121.8 855.22,-125.3 855.22,-118.3"/>
</g>
<!-- MenuComponent -->
<g id="node5" class="node">
<title>MenuComponent</title>
<polygon fill="#ffffb3" stroke="black" points="978.99,-84.8 865.01,-84.8 865.01,-48.8 978.99,-48.8 978.99,-84.8"/>
<text text-anchor="middle" x="922" y="-62.6" font-family="Times,serif" font-size="14.00">MenuComponent</text>
</g>
<!-- MenuComponent&#45;&gt;ComponentsModule -->
<g id="edge5" class="edge">
<title>MenuComponent&#45;&gt;ComponentsModule</title>
<path fill="none" stroke="black" d="M889.38,-84.92C889.38,-99.58 889.38,-117.8 889.38,-117.8 889.38,-117.8 855.2,-117.8 855.2,-117.8"/>
<polygon fill="black" stroke="black" points="855.2,-114.3 845.2,-117.8 855.2,-121.3 855.2,-114.3"/>
</g>
<!-- NewRetoComponent -->
<g id="node6" class="node">
<title>NewRetoComponent</title>
<polygon fill="#ffffb3" stroke="black" points="847.21,-84.8 712.79,-84.8 712.79,-48.8 847.21,-48.8 847.21,-84.8"/>
<text text-anchor="middle" x="780" y="-62.6" font-family="Times,serif" font-size="14.00">NewRetoComponent</text>
</g>
<!-- NewRetoComponent&#45;&gt;ComponentsModule -->
<g id="edge6" class="edge">
<title>NewRetoComponent&#45;&gt;ComponentsModule</title>
<path fill="none" stroke="black" d="M780,-84.91C780,-84.91 780,-103.79 780,-103.79"/>
<polygon fill="black" stroke="black" points="776.5,-103.79 780,-113.79 783.5,-103.79 776.5,-103.79"/>
</g>
<!-- NoticiaComponent -->
<g id="node7" class="node">
<title>NoticiaComponent</title>
<polygon fill="#ffffb3" stroke="black" points="695.04,-84.8 572.96,-84.8 572.96,-48.8 695.04,-48.8 695.04,-84.8"/>
<text text-anchor="middle" x="634" y="-62.6" font-family="Times,serif" font-size="14.00">NoticiaComponent</text>
</g>
<!-- NoticiaComponent&#45;&gt;ComponentsModule -->
<g id="edge7" class="edge">
<title>NoticiaComponent&#45;&gt;ComponentsModule</title>
<path fill="none" stroke="black" d="M667.71,-84.92C667.71,-99.58 667.71,-117.8 667.71,-117.8 667.71,-117.8 704.68,-117.8 704.68,-117.8"/>
<polygon fill="black" stroke="black" points="704.68,-121.3 714.68,-117.8 704.68,-114.3 704.68,-121.3"/>
</g>
<!-- NoticiasComponent -->
<g id="node8" class="node">
<title>NoticiasComponent</title>
<polygon fill="#ffffb3" stroke="black" points="554.99,-84.8 427.01,-84.8 427.01,-48.8 554.99,-48.8 554.99,-84.8"/>
<text text-anchor="middle" x="491" y="-62.6" font-family="Times,serif" font-size="14.00">NoticiasComponent</text>
</g>
<!-- NoticiasComponent&#45;&gt;ComponentsModule -->
<g id="edge8" class="edge">
<title>NoticiasComponent&#45;&gt;ComponentsModule</title>
<path fill="none" stroke="black" d="M522.62,-84.81C522.62,-100.85 522.62,-121.8 522.62,-121.8 522.62,-121.8 704.72,-121.8 704.72,-121.8"/>
<polygon fill="black" stroke="black" points="704.72,-125.3 714.72,-121.8 704.72,-118.3 704.72,-125.3"/>
</g>
<!-- RegistroComponent -->
<g id="node9" class="node">
<title>RegistroComponent</title>
<polygon fill="#ffffb3" stroke="black" points="409.27,-84.8 280.73,-84.8 280.73,-48.8 409.27,-48.8 409.27,-84.8"/>
<text text-anchor="middle" x="345" y="-62.6" font-family="Times,serif" font-size="14.00">RegistroComponent</text>
</g>
<!-- RegistroComponent&#45;&gt;ComponentsModule -->
<g id="edge9" class="edge">
<title>RegistroComponent&#45;&gt;ComponentsModule</title>
<path fill="none" stroke="black" d="M374.62,-84.83C374.62,-101.86 374.62,-124.8 374.62,-124.8 374.62,-124.8 704.42,-124.8 704.42,-124.8"/>
<polygon fill="black" stroke="black" points="704.42,-128.3 714.42,-124.8 704.42,-121.3 704.42,-128.3"/>
</g>
<!-- RetoComponent -->
<g id="node10" class="node">
<title>RetoComponent</title>
<polygon fill="#ffffb3" stroke="black" points="262.77,-84.8 155.23,-84.8 155.23,-48.8 262.77,-48.8 262.77,-84.8"/>
<text text-anchor="middle" x="209" y="-62.6" font-family="Times,serif" font-size="14.00">RetoComponent</text>
</g>
<!-- RetoComponent&#45;&gt;ComponentsModule -->
<g id="edge10" class="edge">
<title>RetoComponent&#45;&gt;ComponentsModule</title>
<path fill="none" stroke="black" d="M236.62,-85.07C236.62,-103.36 236.62,-128.8 236.62,-128.8 236.62,-128.8 704.73,-128.8 704.73,-128.8"/>
<polygon fill="black" stroke="black" points="704.73,-132.3 714.73,-128.8 704.73,-125.3 704.73,-132.3"/>
</g>
<!-- RetosComponent -->
<g id="node11" class="node">
<title>RetosComponent</title>
<polygon fill="#ffffb3" stroke="black" points="137.72,-84.8 24.28,-84.8 24.28,-48.8 137.72,-48.8 137.72,-84.8"/>
<text text-anchor="middle" x="81" y="-62.6" font-family="Times,serif" font-size="14.00">RetosComponent</text>
</g>
<!-- RetosComponent&#45;&gt;ComponentsModule -->
<g id="edge11" class="edge">
<title>RetosComponent&#45;&gt;ComponentsModule</title>
<path fill="none" stroke="black" d="M106.62,-84.91C106.62,-104.14 106.62,-131.8 106.62,-131.8 106.62,-131.8 704.82,-131.8 704.82,-131.8"/>
<polygon fill="black" stroke="black" points="704.82,-135.3 714.82,-131.8 704.82,-128.3 704.82,-135.3"/>
</g>
<!-- FabLoginComponent  -->
<g id="node13" class="node">
<title>FabLoginComponent </title>
<polygon fill="#fb8072" stroke="black" points="1502.77,-214.8 1363.23,-214.8 1363.23,-178.8 1502.77,-178.8 1502.77,-214.8"/>
<text text-anchor="middle" x="1433" y="-192.6" font-family="Times,serif" font-size="14.00">FabLoginComponent </text>
</g>
<!-- ComponentsModule&#45;&gt;FabLoginComponent  -->
<g id="edge12" class="edge">
<title>ComponentsModule&#45;&gt;FabLoginComponent </title>
<path fill="none" stroke="black" stroke-dasharray="5,2" d="M845.24,-135.8C1000.99,-135.8 1381.62,-135.8 1381.62,-135.8 1381.62,-135.8 1381.62,-168.5 1381.62,-168.5"/>
<polygon fill="black" stroke="black" points="1378.12,-168.5 1381.62,-178.5 1385.12,-168.5 1378.12,-168.5"/>
</g>
<!-- HeaderComponent  -->
<g id="node14" class="node">
<title>HeaderComponent </title>
<polygon fill="#fb8072" stroke="black" points="1345.75,-214.8 1220.25,-214.8 1220.25,-178.8 1345.75,-178.8 1345.75,-214.8"/>
<text text-anchor="middle" x="1283" y="-192.6" font-family="Times,serif" font-size="14.00">HeaderComponent </text>
</g>
<!-- ComponentsModule&#45;&gt;HeaderComponent  -->
<g id="edge13" class="edge">
<title>ComponentsModule&#45;&gt;HeaderComponent </title>
<path fill="none" stroke="black" stroke-dasharray="5,2" d="M845.48,-139.8C972.61,-139.8 1240.46,-139.8 1240.46,-139.8 1240.46,-139.8 1240.46,-168.76 1240.46,-168.76"/>
<polygon fill="black" stroke="black" points="1236.96,-168.76 1240.46,-178.76 1243.96,-168.76 1236.96,-168.76"/>
</g>
<!-- InfoRetoComponent  -->
<g id="node15" class="node">
<title>InfoRetoComponent </title>
<polygon fill="#fb8072" stroke="black" points="1202.1,-214.8 1067.9,-214.8 1067.9,-178.8 1202.1,-178.8 1202.1,-214.8"/>
<text text-anchor="middle" x="1135" y="-192.6" font-family="Times,serif" font-size="14.00">InfoRetoComponent </text>
</g>
<!-- ComponentsModule&#45;&gt;InfoRetoComponent  -->
<g id="edge14" class="edge">
<title>ComponentsModule&#45;&gt;InfoRetoComponent </title>
<path fill="none" stroke="black" stroke-dasharray="5,2" d="M845.27,-142.8C936.08,-142.8 1089.54,-142.8 1089.54,-142.8 1089.54,-142.8 1089.54,-168.52 1089.54,-168.52"/>
<polygon fill="black" stroke="black" points="1086.04,-168.52 1089.54,-178.52 1093.04,-168.52 1086.04,-168.52"/>
</g>
<!-- LoginComponent  -->
<g id="node16" class="node">
<title>LoginComponent </title>
<polygon fill="#fb8072" stroke="black" points="1050.27,-214.8 931.73,-214.8 931.73,-178.8 1050.27,-178.8 1050.27,-214.8"/>
<text text-anchor="middle" x="991" y="-192.6" font-family="Times,serif" font-size="14.00">LoginComponent </text>
</g>
<!-- ComponentsModule&#45;&gt;LoginComponent  -->
<g id="edge15" class="edge">
<title>ComponentsModule&#45;&gt;LoginComponent </title>
<path fill="none" stroke="black" stroke-dasharray="5,2" d="M845.32,-146.8C895.2,-146.8 955.43,-146.8 955.43,-146.8 955.43,-146.8 955.43,-168.75 955.43,-168.75"/>
<polygon fill="black" stroke="black" points="951.93,-168.75 955.43,-178.75 958.93,-168.75 951.93,-168.75"/>
</g>
<!-- MenuComponent  -->
<g id="node17" class="node">
<title>MenuComponent </title>
<polygon fill="#fb8072" stroke="black" points="913.99,-214.8 796.01,-214.8 796.01,-178.8 913.99,-178.8 913.99,-214.8"/>
<text text-anchor="middle" x="855" y="-192.6" font-family="Times,serif" font-size="14.00">MenuComponent </text>
</g>
<!-- ComponentsModule&#45;&gt;MenuComponent  -->
<g id="edge16" class="edge">
<title>ComponentsModule&#45;&gt;MenuComponent </title>
<path fill="none" stroke="black" stroke-dasharray="5,2" d="M820.71,-149.91C820.71,-149.91 820.71,-168.79 820.71,-168.79"/>
<polygon fill="black" stroke="black" points="817.21,-168.79 820.71,-178.79 824.21,-168.79 817.21,-168.79"/>
</g>
<!-- NewRetoComponent  -->
<g id="node18" class="node">
<title>NewRetoComponent </title>
<polygon fill="#fb8072" stroke="black" points="777.71,-214.8 640.29,-214.8 640.29,-178.8 777.71,-178.8 777.71,-214.8"/>
<text text-anchor="middle" x="709" y="-192.6" font-family="Times,serif" font-size="14.00">NewRetoComponent </text>
</g>
<!-- ComponentsModule&#45;&gt;NewRetoComponent  -->
<g id="edge17" class="edge">
<title>ComponentsModule&#45;&gt;NewRetoComponent </title>
<path fill="none" stroke="black" stroke-dasharray="5,2" d="M746.34,-149.91C746.34,-149.91 746.34,-168.79 746.34,-168.79"/>
<polygon fill="black" stroke="black" points="742.84,-168.79 746.34,-178.79 749.84,-168.79 742.84,-168.79"/>
</g>
<!-- NoticiasComponent  -->
<g id="node19" class="node">
<title>NoticiasComponent </title>
<polygon fill="#fb8072" stroke="black" points="621.99,-214.8 490.01,-214.8 490.01,-178.8 621.99,-178.8 621.99,-214.8"/>
<text text-anchor="middle" x="556" y="-192.6" font-family="Times,serif" font-size="14.00">NoticiasComponent </text>
</g>
<!-- ComponentsModule&#45;&gt;NoticiasComponent  -->
<g id="edge18" class="edge">
<title>ComponentsModule&#45;&gt;NoticiasComponent </title>
<path fill="none" stroke="black" stroke-dasharray="5,2" d="M714.79,-146.8C662.31,-146.8 597.24,-146.8 597.24,-146.8 597.24,-146.8 597.24,-168.75 597.24,-168.75"/>
<polygon fill="black" stroke="black" points="593.74,-168.75 597.24,-178.75 600.74,-168.75 593.74,-168.75"/>
</g>
<!-- RegistroComponent  -->
<g id="node20" class="node">
<title>RegistroComponent </title>
<polygon fill="#fb8072" stroke="black" points="472.27,-214.8 339.73,-214.8 339.73,-178.8 472.27,-178.8 472.27,-214.8"/>
<text text-anchor="middle" x="406" y="-192.6" font-family="Times,serif" font-size="14.00">RegistroComponent </text>
</g>
<!-- ComponentsModule&#45;&gt;RegistroComponent  -->
<g id="edge19" class="edge">
<title>ComponentsModule&#45;&gt;RegistroComponent </title>
<path fill="none" stroke="black" stroke-dasharray="5,2" d="M714.72,-142.8C618.42,-142.8 449.57,-142.8 449.57,-142.8 449.57,-142.8 449.57,-168.52 449.57,-168.52"/>
<polygon fill="black" stroke="black" points="446.07,-168.52 449.57,-178.52 453.07,-168.52 446.07,-168.52"/>
</g>
<!-- RetoComponent  -->
<g id="node21" class="node">
<title>RetoComponent </title>
<polygon fill="#fb8072" stroke="black" points="321.77,-214.8 210.23,-214.8 210.23,-178.8 321.77,-178.8 321.77,-214.8"/>
<text text-anchor="middle" x="266" y="-192.6" font-family="Times,serif" font-size="14.00">RetoComponent </text>
</g>
<!-- ComponentsModule&#45;&gt;RetoComponent  -->
<g id="edge20" class="edge">
<title>ComponentsModule&#45;&gt;RetoComponent </title>
<path fill="none" stroke="black" stroke-dasharray="5,2" d="M714.42,-139.8C583.27,-139.8 301.12,-139.8 301.12,-139.8 301.12,-139.8 301.12,-168.76 301.12,-168.76"/>
<polygon fill="black" stroke="black" points="297.63,-168.76 301.12,-178.76 304.63,-168.76 297.63,-168.76"/>
</g>
<!-- RetosComponent  -->
<g id="node22" class="node">
<title>RetosComponent </title>
<polygon fill="#fb8072" stroke="black" points="192.22,-214.8 75.78,-214.8 75.78,-178.8 192.22,-178.8 192.22,-214.8"/>
<text text-anchor="middle" x="134" y="-192.6" font-family="Times,serif" font-size="14.00">RetosComponent </text>
</g>
<!-- ComponentsModule&#45;&gt;RetosComponent  -->
<g id="edge21" class="edge">
<title>ComponentsModule&#45;&gt;RetosComponent </title>
<path fill="none" stroke="black" stroke-dasharray="5,2" d="M714.83,-135.8C558.25,-135.8 173.74,-135.8 173.74,-135.8 173.74,-135.8 173.74,-168.5 173.74,-168.5"/>
<polygon fill="black" stroke="black" points="170.24,-168.5 173.74,-178.5 177.24,-168.5 170.24,-168.5"/>
</g>
</g>
</svg>
